# xmcd CD database file
#
# Track frame offsets:
#	225
#	21767
#	29049
#	45895
#	65852
#	87596
#	115902
#	135723
#	155747
#	172157
#	188020
#	205292
#	239629
#	257575
#	269072
#	288211
#	306023
#	318807
#	352131
#
# Disc length: 4747 seconds
#
# Revision: 0
# Processed by: cddbd v1.5.1PL2 Copyright (c) Steve Scherf et al.
# Submitted via: CDex 1.51
#
DISCID=28128813
DTITLE=Parchman Farm - The Big Muddy
DYEAR=2003
DGENRE=Blues
TTITLE0=Rollin' And Tumblin'
TTITLE1=Hill Stomp
TTITLE2=Terraplane Blues
TTITLE3=River Out To Sea
TTITLE4=Preachin' Blues
TTITLE5=Baby, Please Don't Leave Me
TTITLE6=Death Letter
TTITLE7=Cypress Grove
TTITLE8=Skinny Woman
TTITLE9=If I Had Posession Over Judgement Day
TTITLE10=I Shall Not Be Moved
TTITLE11=Crawling King Snake
TTITLE12=Pretty Polly
TTITLE13=Wild Bill Jones
TTITLE14=Stones In My Passway
TTITLE15=Homeless Child
TTITLE16=Bye And Bye I'm Going To See The King
TTITLE17=Morocco
TTITLE18=Bonus Track
EXTD=YEAR: 2003
EXTT0=
EXTT1=
EXTT2=
EXTT3=
EXTT4=
EXTT5=
EXTT6=
EXTT7=
EXTT8=
EXTT9=
EXTT10=
EXTT11=
EXTT12=
EXTT13=
EXTT14=
EXTT15=
EXTT16=
EXTT17=
EXTT18=
PLAYORDER=
